<svg id="visual" viewBox="0 0 960 200" width="960" height="200" xmlns="http://www.w3.org/2000/svg" xmlns:xlink="http://www.w3.org/1999/xlink" version="1.1"><path d="M0 76L26.7 80.8C53.3 85.7 106.7 95.3 160 95C213.3 94.7 266.7 84.3 320 89C373.3 93.7 426.7 113.3 480 118.8C533.3 124.3 586.7 115.7 640 106C693.3 96.3 746.7 85.7 800 80C853.3 74.3 906.7 73.7 933.3 73.3L960 73L960 201L933.3 201C906.7 201 853.3 201 800 201C746.7 201 693.3 201 640 201C586.7 201 533.3 201 480 201C426.7 201 373.3 201 320 201C266.7 201 213.3 201 160 201C106.7 201 53.3 201 26.7 201L0 201Z" fill="#fe723a"></path><path d="M0 102L26.7 107C53.3 112 106.7 122 160 128.5C213.3 135 266.7 138 320 135.8C373.3 133.7 426.7 126.3 480 123.2C533.3 120 586.7 121 640 122C693.3 123 746.7 124 800 124.2C853.3 124.3 906.7 123.7 933.3 123.3L960 123L960 201L933.3 201C906.7 201 853.3 201 800 201C746.7 201 693.3 201 640 201C586.7 201 533.3 201 480 201C426.7 201 373.3 201 320 201C266.7 201 213.3 201 160 201C106.7 201 53.3 201 26.7 201L0 201Z" fill="#f8623c"></path><path d="M0 133L26.7 133.2C53.3 133.3 106.7 133.7 160 135.7C213.3 137.7 266.7 141.3 320 142.3C373.3 143.3 426.7 141.7 480 140.2C533.3 138.7 586.7 137.3 640 140.8C693.3 144.3 746.7 152.7 800 155.5C853.3 158.3 906.7 155.7 933.3 154.3L960 153L960 201L933.3 201C906.7 201 853.3 201 800 201C746.7 201 693.3 201 640 201C586.7 201 533.3 201 480 201C426.7 201 373.3 201 320 201C266.7 201 213.3 201 160 201C106.7 201 53.3 201 26.7 201L0 201Z" fill="#f1523f"></path></svg>