<svg id="visual" viewBox="0 0 960 200" width="960" height="200" xmlns="http://www.w3.org/2000/svg" xmlns:xlink="http://www.w3.org/1999/xlink" version="1.1"><path d="M0 84L26.7 88.5C53.3 93 106.7 102 160 103.3C213.3 104.7 266.7 98.3 320 96.3C373.3 94.3 426.7 96.7 480 100.7C533.3 104.7 586.7 110.3 640 112.2C693.3 114 746.7 112 800 113.7C853.3 115.3 906.7 120.7 933.3 123.3L960 126L960 0L933.3 0C906.7 0 853.3 0 800 0C746.7 0 693.3 0 640 0C586.7 0 533.3 0 480 0C426.7 0 373.3 0 320 0C266.7 0 213.3 0 160 0C106.7 0 53.3 0 26.7 0L0 0Z" fill="#fe723a"></path><path d="M0 51L26.7 56.3C53.3 61.7 106.7 72.3 160 76.8C213.3 81.3 266.7 79.7 320 74.3C373.3 69 426.7 60 480 61.2C533.3 62.3 586.7 73.7 640 82.3C693.3 91 746.7 97 800 95.3C853.3 93.7 906.7 84.3 933.3 79.7L960 75L960 0L933.3 0C906.7 0 853.3 0 800 0C746.7 0 693.3 0 640 0C586.7 0 533.3 0 480 0C426.7 0 373.3 0 320 0C266.7 0 213.3 0 160 0C106.7 0 53.3 0 26.7 0L0 0Z" fill="#f8623c"></path><path d="M0 46L26.7 47.2C53.3 48.3 106.7 50.7 160 49.7C213.3 48.7 266.7 44.3 320 42C373.3 39.7 426.7 39.3 480 40.5C533.3 41.7 586.7 44.3 640 47.3C693.3 50.3 746.7 53.7 800 52.3C853.3 51 906.7 45 933.3 42L960 39L960 0L933.3 0C906.7 0 853.3 0 800 0C746.7 0 693.3 0 640 0C586.7 0 533.3 0 480 0C426.7 0 373.3 0 320 0C266.7 0 213.3 0 160 0C106.7 0 53.3 0 26.7 0L0 0Z" fill="#f1523f"></path></svg>