<?xml version="1.0" standalone="no"?>
<!DOCTYPE svg PUBLIC "-//W3C//DTD SVG 20010904//EN"
 "http://www.w3.org/TR/2001/REC-SVG-20010904/DTD/svg10.dtd">
<svg version="1.0" xmlns="http://www.w3.org/2000/svg"
 width="264.000000pt" height="241.000000pt" viewBox="0 0 264.000000 241.000000"
 preserveAspectRatio="xMidYMid meet">

<g transform="translate(0.000000,241.000000) scale(0.100000,-0.100000)"
fill="#000000" stroke="none">
<path d="M975 2306 c-107 -46 -124 -183 -34 -260 l41 -35 -4 -330 c-3 -320 -2
-331 17 -350 11 -11 97 -64 190 -119 94 -55 169 -104 168 -108 -1 -5 -118
-222 -260 -481 l-257 -473 -59 0 c-32 0 -57 4 -55 9 2 5 64 122 138 260 100
185 140 251 153 251 54 0 117 67 117 125 0 40 -32 90 -69 110 -104 53 -219
-59 -168 -163 13 -26 6 -41 -145 -322 -87 -162 -158 -304 -158 -317 0 -41 31
-51 170 -52 l129 -2 24 38 c13 21 252 457 531 969 l508 930 43 12 c116 31 151
181 60 261 -141 124 -349 -66 -229 -209 14 -17 24 -36 21 -44 -8 -21 -428
-790 -437 -799 -4 -4 -81 36 -171 90 l-164 98 1 38 c0 20 1 161 2 312 2 234 4
275 17 275 26 0 84 61 96 100 38 127 -94 239 -216 186z m103 -102 c31 -22 26
-63 -10 -84 -25 -13 -31 -13 -55 0 -37 21 -42 62 -11 84 12 9 29 16 38 16 9 0
26 -7 38 -16z m910 -20 c31 -21 26 -63 -9 -83 -58 -32 -121 45 -67 83 12 9 29
16 38 16 9 0 26 -7 38 -16z m-960 -1387 c4 -20 -25 -34 -40 -19 -15 15 -1 44
19 40 10 -2 19 -11 21 -21z"/>
</g>
</svg>
